<svg width="512" height="512" viewBox="0 0 220 220" xmlns="http://www.w3.org/2000/svg">
  <defs>
    <radialGradient id="abyssBg" cx="50%" cy="45%" r="65%">
      <stop offset="0%" stop-color="#111620"/>
      <stop offset="100%" stop-color="#04050a"/>
    </radialGradient>
    <linearGradient id="silverRing" x1="0%" y1="0%" x2="100%" y2="100%">
      <stop offset="0%"   stop-color="#ffffff" stop-opacity="0.98"/>
      <stop offset="18%"  stop-color="#c8c2bc"/>
      <stop offset="40%"  stop-color="#edeae5"/>
      <stop offset="62%"  stop-color="#a09890"/>
      <stop offset="80%"  stop-color="#d8d4ce"/>
      <stop offset="100%" stop-color="#7a756e"/>
    </linearGradient>
    <linearGradient id="iceBlue" x1="0%" y1="0%" x2="100%" y2="100%">
      <stop offset="0%"   stop-color="#a8d8f0" stop-opacity="0.9"/>
      <stop offset="35%"  stop-color="#5cb8e4"/>
      <stop offset="65%"  stop-color="#88cff0" stop-opacity="0.95"/>
      <stop offset="100%" stop-color="#3a9ecc" stop-opacity="0.8"/>
    </linearGradient>
    <linearGradient id="glyphSilver" x1="20%" y1="0%" x2="80%" y2="100%">
      <stop offset="0%"   stop-color="#ffffff"/>
      <stop offset="40%"  stop-color="#d0ccc6"/>
      <stop offset="100%" stop-color="#9a9590"/>
    </linearGradient>
    <filter id="blueGlow" x="-30%" y="-30%" width="160%" height="160%">
      <feGaussianBlur stdDeviation="3.5" result="blur"/>
      <feMerge><feMergeNode in="blur"/><feMergeNode in="SourceGraphic"/></feMerge>
    </filter>
    <filter id="silverGlow" x="-20%" y="-20%" width="140%" height="140%">
      <feGaussianBlur stdDeviation="1.5" result="blur"/>
      <feMerge><feMergeNode in="blur"/><feMergeNode in="SourceGraphic"/></feMerge>
    </filter>
    <clipPath id="topHalf">
      <rect x="0" y="0" width="220" height="110"/>
    </clipPath>
  </defs>
  <rect width="220" height="220" rx="48" fill="url(#abyssBg)"/>
  <rect width="220" height="220" rx="48" fill="none" stroke="rgba(255,255,255,0.05)" stroke-width="1"/>
  <circle cx="110" cy="110" r="83" fill="none" stroke="rgba(0,0,0,0.6)" stroke-width="7"/>
  <circle cx="110" cy="110" r="83" fill="none" stroke="url(#silverRing)" stroke-width="5.5" filter="url(#silverGlow)"/>
  <path d="M 52 62 A 83 83 0 0 1 168 62" fill="none" stroke="rgba(255,255,255,0.22)" stroke-width="3.5" stroke-linecap="round" clip-path="url(#topHalf)"/>
  <circle cx="110" cy="110" r="80" fill="none" stroke="rgba(255,255,255,0.06)" stroke-width="1"/>
  <circle cx="110" cy="110" r="64" fill="none" stroke="#5cb8e4" stroke-width="10" opacity="0.08"/>
  <circle cx="110" cy="110" r="64" fill="none" stroke="#88d4f5" stroke-width="6" opacity="0.12"/>
  <circle cx="110" cy="110" r="64" fill="none" stroke="url(#iceBlue)" stroke-width="2.8" filter="url(#blueGlow)"/>
  <path d="M 62 72 A 64 64 0 0 1 158 72" fill="none" stroke="rgba(200,240,255,0.5)" stroke-width="1.5" stroke-linecap="round" clip-path="url(#topHalf)"/>
  <ellipse cx="110" cy="116" rx="26" ry="6.5" fill="none" stroke="url(#glyphSilver)" stroke-width="2" filter="url(#silverGlow)"/>
  <ellipse cx="110" cy="116" rx="19" ry="4.5" fill="none" stroke="rgba(200,195,188,0.4)" stroke-width="1"/>
  <line x1="100" y1="124" x2="120" y2="124" stroke="url(#glyphSilver)" stroke-width="2" stroke-linecap="round" filter="url(#silverGlow)"/>
  <line x1="110" y1="122" x2="110" y2="124" stroke="url(#glyphSilver)" stroke-width="2" stroke-linecap="round"/>
  <line x1="110" y1="113" x2="110" y2="94" stroke="url(#glyphSilver)" stroke-width="2" stroke-linecap="round" filter="url(#silverGlow)"/>
  <path d="M 104 101 L 110 93 L 116 101" fill="none" stroke="url(#glyphSilver)" stroke-width="2" stroke-linejoin="round" stroke-linecap="round" filter="url(#silverGlow)"/>
  <g stroke="rgba(200,195,188,0.4)" stroke-width="1" stroke-linecap="round">
    <line x1="110" y1="24" x2="110" y2="20"/>
    <line x1="110" y1="200" x2="110" y2="196"/>
    <line x1="24" y1="110" x2="20" y2="110"/>
    <line x1="200" y1="110" x2="196" y2="110"/>
  </g>
  <circle cx="110" cy="110" r="40" fill="rgba(92,184,228,0.03)"/>
</svg>
